# xmcd
#
# Track frame offsets: 
#        150
#        21028
#        43756
#        67367
#        87116
#        101875
#        123633
#        145477
#        163775
#        185911
#        206819
#
# Disc length: 3013 seconds
#
# Revision: 2
# Processed by: cddbd v1.5.2PL0 Copyright (c) Steve Scherf et al.
# Submitted via: ExactAudioCopy v1.3
#
DISCID=b00bc30b
DTITLE=Kenny Neal - Let Life Flow
DYEAR=2008
DGENRE=Blues
TTITLE0=Let Life Flow
TTITLE1=Blues, Leave Me Alone
TTITLE2=You've Got To Hurt Before You Heal
TTITLE3=Louisiana Stew
TTITLE4=Starlight Diamond
TTITLE5=Another Man's Cologne
TTITLE6=Broken Dreams
TTITLE7=Bleeding Heart
TTITLE8=Since I Met You, Baby
TTITLE9=Fly Away
TTITLE10=If Don't Make Sense You Can't Make Peace
EXTD=YEAR: 2008
EXTT0=
EXTT1=
EXTT2=
EXTT3=
EXTT4=
EXTT5=
EXTT6=
EXTT7=
EXTT8=
EXTT9=
EXTT10=
PLAYORDER=
